<svg width="40" height="32" xmlns="http://www.w3.org/2000/svg" version="1.1">
 <!-- Generator: Sketch 51.2 (57519) - http://www.bohemiancoding.com/sketch -->
 <title>logo_header</title>
 <desc>Created with Sketch.</desc>

 <g>
  <title>background</title>
  <rect fill="none" id="canvas_background" height="34" width="42" y="-1" x="-1"/>
 </g>
 <g>
  <title>Layer 1</title>
  <g fill-rule="evenodd" fill="none" id="logo_header">
   <g id="svg_1" fill="#292929">
    <path id="Fill-1" d="m35.599354,14.595272l-10.325686,0c-1.078291,0 -1.955482,0.854428 -1.955482,1.904728c0,1.050299 0.877192,1.904736 1.955482,1.904736l10.325686,0c0.539879,0 0.977741,0.426336 0.977741,0.952368c0,0.52602 -0.437862,0.95236 -0.977741,0.95236l-10.325686,0c-2.15641,0 -3.910969,-1.709015 -3.910969,-3.809464c0,-2.100447 1.754559,-3.809464 3.910969,-3.809464l10.325686,0c0.539879,0 0.977741,0.426343 0.977741,0.952365c0,0.526028 -0.437862,0.952372 -0.977741,0.952372zm-6.335999,13.333124l6.439583,0c0.539875,0 0.977741,0.426342 0.977741,0.952362c0,0.526022 -0.437866,0.952366 -0.977741,0.952366l-6.439583,0l-2.281404,0l-1.708282,0l-2.365654,0l-4.888714,0c-7.882076,0 -13.769002,-4.206596 -17.49795,-10.978237c-0.255351,-0.463488 -0.076426,-1.040777 0.399405,-1.289345c0.475839,-0.248728 1.068676,-0.074289 1.323705,0.389038c2.45772,4.463106 5.696199,7.116714 10.068242,9.138748c-3.418354,-1.903145 -4.967516,-4.724215 -6.902637,-8.238441c-0.255352,-0.463488 -0.076427,-1.040777 0.399413,-1.289345c0.475831,-0.248728 1.068676,-0.074289 1.323705,0.389038c2.392207,4.344059 4.799565,8.118494 9.68512,9.019068c-3.183367,-2.443617 -5.23304,-6.228634 -5.23304,-10.473648c0,-7.351793 6.140718,-13.333124 13.688406,-13.333124l10.42927,0c0.539875,0 0.977741,0.426343 0.977741,0.952364c0,0.526021 -0.437866,0.952364 -0.977741,0.952364l-10.42927,0c-6.469561,0 -11.732921,5.12675 -11.732921,11.428395c0,6.301647 5.26336,11.428396 11.732921,11.428396l1.708282,0l2.281404,0zm6.439583,-18.094962l-10.42927,0c-3.77393,0 -6.844206,2.99059 -6.844206,6.666566c0,3.675976 3.070276,6.666567 6.844206,6.666567l10.42927,0c0.539875,0 0.977741,0.426344 0.977741,0.952364c0,0.52602 -0.437866,0.952364 -0.977741,0.952364l-10.42927,0c-4.852047,0 -8.799692,-3.845177 -8.799692,-8.571295c0,-4.726116 3.947645,-8.571293 8.799692,-8.571293l10.42927,0c0.539875,0 0.977741,0.426342 0.977741,0.952363c0,0.526021 -0.437866,0.952364 -0.977741,0.952364z"/>
    <g id="type">
     <path id="Fill-1" d="m58.613068,8.569658l-12.345795,0c-0.144028,0 -0.260452,0.112723 -0.260452,0.2523l0,15.799595c0,0.139343 0.116425,0.252062 0.260452,0.252062l0.770412,0c0.143795,0 0.260448,-0.112719 0.260448,-0.252062l0,-3.545301c0.01524,0.014112 0.032387,0.026157 0.050713,0.035875l0.436146,0.096285c0.113804,0.061335 0.25927,0.030787 0.337353,-0.07291c0.419964,-0.562912 0.882305,-1.13578 1.27346,-1.800081c0.238792,-0.405979 0.474236,-0.832567 0.7047,-1.275358c0.06237,-0.119894 0.247829,-0.237015 0.334255,-0.038876c0.086418,0.197899 0.95491,2.08223 0.95491,2.08223c0.029282,0.064346 0.085468,0.113651 0.154747,0.136328c0.067852,0.023376 0.144272,0.016203 0.207832,-0.017355l0.687565,-0.363632c0.120705,-0.063417 0.169266,-0.206928 0.111176,-0.327751c-0.277351,-0.580269 -0.548046,-1.154997 -0.811111,-1.723925c-0.24855,-0.536301 -0.503288,-1.066811 -0.763737,-1.592924c0.288536,-0.659898 0.55899,-1.345025 0.804211,-2.038487c0.156891,-0.444169 0.305206,-0.893209 0.444241,-1.341091c0.292355,0.61476 0.594238,1.245732 0.906345,1.893131c0.309978,0.64578 0.617092,1.301742 0.921112,1.96835c-0.30545,0.711981 -0.641842,1.424189 -1.001575,2.119493c-0.377106,0.730963 -0.77874,1.467247 -1.192276,2.189634c-0.067379,0.11758 -0.027378,0.265486 0.090225,0.337006l0.271408,0.16342c0.11404,0.068974 0.26474,0.041199 0.345921,-0.064121c0.418064,-0.546474 0.829681,-1.156839 1.224648,-1.81373c0.257603,-0.430059 0.512341,-0.875624 0.747555,-1.336231c0.051189,-0.099525 0.16975,-0.12244 0.226402,-0.008802c0.174282,0.351364 0.328072,0.705734 0.490196,1.050611c0.269508,0.573105 0.521618,1.130922 0.756847,1.673702c0.028324,0.064344 0.081417,0.114574 0.148788,0.138878c0.067131,0.024076 0.141655,0.021526 0.206413,-0.009954l0.687317,-0.326822c0.127842,-0.061104 0.181889,-0.210173 0.120705,-0.334698c-0.319263,-0.652718 -0.630184,-1.308218 -0.935398,-1.967197c-0.290447,-0.627029 -0.586849,-1.251972 -0.889679,-1.873913c0.315205,-0.71429 0.617096,-1.45011 0.89706,-2.188702c0.292122,-0.772391 0.560196,-1.550797 0.795643,-2.313c0.039051,-0.127072 -0.028809,-0.261326 -0.156174,-0.308542l-0.687313,-0.254844c-0.06881,-0.025229 -0.144512,-0.02175 -0.209507,0.009954c-0.065235,0.032177 -0.113556,0.088192 -0.134033,0.156243c-0.189991,0.639761 -0.406162,1.308913 -0.641857,1.98849c-0.137363,0.394638 -0.276875,0.767752 -0.428532,1.171425c-0.047375,0.126846 -0.260925,0.130544 -0.319965,0.016894c-0.156418,-0.297891 -0.314259,-0.592539 -0.47234,-0.881174c-0.313065,-0.570551 -0.630657,-1.135318 -0.949913,-1.693835c-0.068089,-0.117118 -0.217838,-0.16249 -0.339497,-0.105547l-0.3433,0.157393c0.041904,-0.142353 0.082848,-0.284466 0.123329,-0.426359c0.037128,-0.13262 -0.042385,-0.270572 -0.178562,-0.308997l-0.708511,-0.199753c-0.067131,-0.019444 -0.139744,-0.010642 -0.201401,0.022687c-0.060959,0.033792 -0.105717,0.090035 -0.123329,0.156007c-0.163319,0.607813 -0.34782,1.230683 -0.548519,1.851002l-0.338306,1.00246c-0.071423,0.149522 -0.258068,0.126607 -0.321156,0.010416c-0.16618,-0.306227 -0.332355,-0.607132 -0.498535,-0.903397c-0.32021,-0.571714 -0.64827,-1.136943 -0.981812,-1.696158c-0.066662,-0.111796 -0.210457,-0.156933 -0.331638,-0.104159l-0.417107,0.181935c-0.064041,0.027772 -0.114037,0.079619 -0.13784,0.143735c-0.023808,0.063882 -0.02071,0.134484 0.009758,0.196276c0.360687,0.725866 0.700176,1.421646 1.019192,2.086637c0.303791,0.635358 0.615189,1.28623 0.931587,1.954c-0.58614,1.416313 -1.52272,2.871054 -2.358837,4.326029l0,-10.915291l10.284065,0l0,12.760504c0,0.227293 -0.024277,0.42358 -0.072372,0.582127c-0.037369,0.120825 -0.118561,0.216183 -0.249496,0.292105c-0.153793,0.089573 -0.396629,0.155081 -0.719219,0.192806c-0.347591,0.040966 -0.36544,0.055553 -0.963486,0.043745c-0.076183,0 -0.137604,0.024765 -0.187126,0.071756c-0.050472,0.047451 -0.078083,0.112722 -0.078083,0.180771l0,0.2722c0,0.120821 0.087608,0.224518 0.209976,0.248127c0.780403,0.148136 0.963722,0.216646 1.445343,0.195124c0.515427,-0.020134 0.904202,-0.112495 1.188705,-0.282852c0.299026,-0.179146 0.498531,-0.432598 0.592804,-0.75433c0.082371,-0.28215 0.124271,-0.602036 0.124271,-0.950609l0,-13.794676c0,-0.139577 -0.116653,-0.2523 -0.260448,-0.2523"/>
     <path id="Fill-4" d="m66.321899,12.783446c0,-0.15646 0.149986,-0.299743 0.328064,-0.299743l7.709305,0c0.19236,0 0.302109,0.114812 0.302109,0.26526l0,1.445014l-8.339478,0l0,-1.410531zm0,-3.037004l8.339478,0l0,1.21193c0,0.20808 -0.100708,0.346268 -0.296638,0.348585l-7.673111,0c-0.219742,0 -0.369728,-0.071293 -0.369728,-0.360619l0,-1.199897zm10.380608,7.2149l-9.943985,0l-0.2826,-0.000462l1.433205,-1.608664l7.788589,0c0.148079,0 0.267593,-0.116654 0.267593,-0.260392l0,-6.261512c0,-0.1442 -0.119514,-0.260628 -0.267593,-0.260628l-10.434769,0c-0.147842,0 -0.26712,0.116427 -0.26712,0.260628l0,6.261512c0,0.143738 0.09166,0.260392 0.26712,0.260392l0.769691,0l0.000954,0l-2.839279,2.978682c-0.145927,0.142355 -0.145927,0.37335 0,0.515697l0.408546,0.397888c0.145935,0.142345 0.383053,0.142345 0.529472,0l1.115379,-1.086021c0,0 2.363121,-0.002316 3.02401,-0.002779c0.107605,0 0.184265,0.128923 0.117134,0.194195c-0.772545,0.75272 -4.876232,4.914406 -4.876232,4.914406c-0.146179,0.142349 -0.146179,0.373116 0,0.515467l0.408546,0.397884c0.145931,0.142349 0.383053,0.142349 0.529224,0l5.989464,-6.021488c0,0 1.670097,0.005558 1.830315,0.005558c0.181168,0 0.234497,0.117119 0.135468,0.213175c-0.114281,0.110636 -5.019325,5.219238 -5.019325,5.219238c-0.146172,0.142118 -0.146172,0.372885 0,0.515461l0.408539,0.397654c0.145943,0.142582 0.383308,0.142582 0.529243,0l6.160393,-6.346918l1.158119,-0.002779c-0.002136,0.156696 -0.00547,0.327517 -0.009514,0.510839c-0.007149,0.292568 -0.018349,0.597399 -0.031197,0.913115c-0.014526,0.317108 -0.032379,0.631199 -0.053085,0.940668c-0.021904,0.314093 -0.039764,0.596708 -0.05381,0.848532c-0.027847,0.526808 -0.092598,0.967741 -0.193069,1.309841c-0.091904,0.310858 -0.250694,0.549955 -0.485435,0.729343c-0.240929,0.184244 -0.589233,0.31502 -1.034668,0.388626c-0.473297,0.078234 -0.60685,0.111788 -1.369392,0.099527c-0.069992,-0.009026 -0.14048,0.026157 -0.191422,0.07476c-0.051422,0.049307 -0.080223,0.116194 -0.080223,0.185631l0,0.281c0,0.127996 0.094986,0.236315 0.224258,0.25761c0.957062,0.152302 1.247742,0.206465 1.845551,0.161329c0.626846,-0.04698 1.135605,-0.21364 1.510803,-0.493475c0.378067,-0.282614 0.650658,-0.686518 0.809456,-1.200357c0.14785,-0.480289 0.244507,-1.073988 0.288551,-1.768831c0.014519,-0.311789 0.032379,-0.661058 0.054031,-1.047598c0.021194,-0.389326 0.039291,-0.774473 0.054047,-1.157778c0.013573,-0.383066 0.024292,-0.746462 0.031197,-1.091343c0.007378,-0.345341 0.010956,-0.638144 0.010956,-0.877476c0,-0.143501 -0.119286,-0.260159 -0.267136,-0.260159z"/>
     <path id="Fill-6" d="m94.352898,20.943386c-0.376617,-0.408756 -0.756348,-0.797848 -1.130592,-1.161007c-0.39473,-0.38307 -0.838737,-0.765219 -1.322502,-1.136482c0.053329,-0.197899 0.097122,-0.405523 0.13118,-0.618925c0.032364,-0.201143 0.060944,-0.411314 0.084991,-0.62912l2.236923,0l0,3.545534zm-4.830017,-7.740089l4.100098,0l0,-3.288151l-4.100098,0l0,3.288151zm0.714684,6.654997c-0.187599,0.361778 -0.433769,0.706657 -0.730881,1.024454c-0.20713,0.220581 -0.445915,0.443943 -0.713745,0.667072l0,-4.151968l2.059334,0c-0.042374,0.459688 -0.105225,0.880718 -0.186165,1.254524c-0.09523,0.436075 -0.238792,0.842058 -0.428543,1.205917zm-7.732399,-3.553638l1.002068,0l0,-4.332733l-1.002068,0l0,4.332733zm2.225998,0l1.077759,0l0,-4.332733l-1.077759,0l0,4.332733zm7.440277,-0.096977c0.009758,-0.30923 0.018089,-0.61592 0.023811,-0.92145c0.004997,-0.305762 0.008804,-0.609438 0.010239,-0.911497l2.393585,0c0.148323,0 0.268547,-0.116199 0.268547,-0.259009l0,-5.094019c0,-0.143038 -0.120224,-0.259002 -0.268547,-0.259002l-6.074928,0c-0.147835,0 -0.268066,0.115964 -0.268066,0.259002l0,5.094019c0,0.142811 0.120232,0.259009 0.268066,0.259009l2.414551,0c-0.000946,0.3178 -0.00428,0.628182 -0.010239,0.930243c-0.005951,0.300903 -0.012856,0.601801 -0.023102,0.902703l-3.111382,0c-0.147842,0 -0.268059,0.115494 -0.268059,0.259005l0,5.992781c-0.130951,-0.582821 -0.263321,-1.133236 -0.39402,-1.64245c-0.17308,-0.671938 -0.408295,-1.359144 -0.699699,-2.041964c-0.049515,-0.11549 -0.175453,-0.183313 -0.30426,-0.154842l-0.450432,0.093044c-0.071426,0.01482 -0.13308,0.056479 -0.17141,0.115965c-0.038338,0.059719 -0.050476,0.131474 -0.03286,0.199753c0.113564,0.446257 0.217369,0.864744 0.310219,1.255684c0.072845,0.305527 0.142845,0.613136 0.210922,0.922606l-1.263214,0.169193l0,-3.937862l2.032913,0c0.148079,0 0.268311,-0.115961 0.268311,-0.258999l0,-6.082828c0,-0.143276 -0.120232,-0.259005 -0.268311,-0.259005l-2.032913,0l0,-2.711578c0,-0.143274 -0.119751,-0.259465 -0.268311,-0.259465l-0.687317,0c-0.148079,0 -0.268303,0.116191 -0.268303,0.259465l0,2.711578l-1.957924,0c-0.148087,0 -0.268311,0.115728 -0.268311,0.259005l0,6.084216c0,0.143501 0.120224,0.259003 0.268311,0.259003l0.687553,0l0.268303,-0.001392l1.002068,0l0,4.166321l-2.413124,0.390945c-0.145935,0.02499 -0.242836,0.158772 -0.217117,0.29974l0.128799,0.708963c0.012611,0.069904 0.05452,0.131704 0.116409,0.171282c0.061188,0.039577 0.137367,0.052311 0.207596,0.036573c0.787315,-0.173836 1.698425,-0.345112 2.442642,-0.513382c0.658035,-0.148144 1.715324,-0.32081 2.420021,-0.51339l0.222115,1.086021c0.013817,0.067822 0.05619,0.127308 0.116425,0.165731c0.059761,0.038187 0.132607,0.050686 0.204269,0.037033l0.708267,-0.149065c0.030243,-0.006475 0.057625,-0.017357 0.082382,-0.032167l0,1.315498c0,0.143047 0.120216,0.259003 0.268059,0.259003l0.730171,0c0.148567,0 0.268791,-0.115955 0.268791,-0.259003l0,-2.04438c0.028809,-0.003698 0.05761,-0.011333 0.084518,-0.024067c0.806587,-0.376818 1.436768,-0.839743 1.866013,-1.381132c0.672325,-0.847153 1.380829,-0.84137 1.773415,-0.39904c0.357582,0.402973 0.602806,0.693224 1.059669,1.227213c0.048805,0.055779 0.119514,0.090263 0.195457,0.093042c0.072136,0.006021 0.148315,-0.024069 0.202362,-0.076376l0.378525,-0.368719l0,1.215271c0,0.209936 -0.021652,0.385849 -0.064034,0.522409c-0.030472,0.096985 -0.102371,0.176151 -0.219971,0.24165c-0.147377,0.081705 -0.369011,0.139576 -0.659706,0.172668c-0.313789,0.035646 -0.311172,0.048378 -0.855881,0.035646c-0.074997,-0.000462 -0.149506,0.027544 -0.201881,0.081707c-0.051903,0.053465 -0.078087,0.12591 -0.071663,0.199053l0.021194,0.242346c0.009048,0.113413 0.094269,0.207157 0.209267,0.231924c1.49366,0.317795 1.893639,0.302059 2.424538,-0.014578c0.2864,-0.171745 0.477104,-0.420803 0.568039,-0.740452c0.076904,-0.275667 0.115944,-0.602728 0.115944,-0.972374l0,-6.383823c0,-0.143511 -0.119514,-0.259005 -0.268066,-0.259005l-3.179237,0z"/>
     <path id="Fill-8" d="m113.284561,17.598042l-5.286903,0c-0.616615,0 -0.840408,-0.208307 -0.840408,-0.836037l0,-3.057848c0,-0.513145 0.182373,-0.751087 0.823021,-0.751087l4.02108,0c0.147583,0 0.267105,-0.116427 0.267105,-0.259701l0,-0.730499c0,-0.143737 -0.119522,-0.259929 -0.267105,-0.259929l-4.844101,0l0,-3.576323c0,-0.143965 -0.119278,-0.259929 -0.267349,-0.259929l-0.833977,0c-0.147377,0 -0.26712,0.115964 -0.26712,0.259929l0,3.576323l-2.9795,0c0.098801,-0.304609 0.19165,-0.618929 0.276176,-0.938351c0.11451,-0.432137 0.22879,-0.886034 0.344017,-1.361917c0.033569,-0.13865 -0.05381,-0.277756 -0.195938,-0.312248l-0.855873,-0.205765c-0.070946,-0.017591 -0.144981,-0.005331 -0.206177,0.03194c-0.061646,0.037725 -0.104515,0.09791 -0.119263,0.166423c-0.266891,1.228832 -0.59185,2.422708 -0.96563,3.548544c-0.371399,1.115182 -0.865402,2.247265 -1.469391,3.365227c-0.068085,0.126374 -0.019051,0.282151 0.109741,0.34974l0.321175,0.168037c0.1157,0.060638 0.259018,0.031477 0.339249,-0.070366c0.450439,-0.572403 0.843025,-1.16356 1.167511,-1.757951c0.298317,-0.544405 0.565422,-1.12676 0.796356,-1.733186l2.675232,0c0.555908,0 0.762314,0.214792 0.762314,0.742522l0,3.027524c0,0.725637 -0.257355,0.874926 -0.838013,0.874926l-5.588539,0c-0.148087,0 -0.267365,0.116426 -0.267365,0.259937l0,0.767523c0,0.143511 0.119278,0.259937 0.267365,0.259937l6.426552,0l0,5.868948c0,0.14328 0.119743,0.259935 0.26712,0.259935l0.833977,0c0.148071,0 0.267349,-0.116655 0.267349,-0.259935l0,-5.868948l6.127312,0c0.148071,0 0.26712,-0.116426 0.26712,-0.259937l0,-0.767523c0,-0.143511 -0.119049,-0.259937 -0.26712,-0.259937"/>
     <path id="Combined-Shape" d="m129.070938,14.076017l-8.66951,0c-0.147789,0 -0.267632,-0.11584 -0.267632,-0.259939l0,-0.654945c0,-0.143399 0.119843,-0.259701 0.267632,-0.259701l4.187325,0l0,-1.78158l-3.651825,0c-0.148277,0 -0.267624,-0.116302 -0.267624,-0.260165l0,-0.654482c0,-0.143872 0.119347,-0.260401 0.267624,-0.260401l3.651825,0l0,-1.910387c0,-0.143181 0.11985,-0.25971 0.267624,-0.25971l0.792397,0c0.148018,0 0.267868,0.116529 0.267868,0.25971l0,1.910387l3.739685,0c0.147537,0 0.267395,0.116529 0.267395,0.260401l0,0.654482c0,0.143864 -0.119858,0.260165 -0.267395,0.260165l-3.739685,0l0,1.78158l4.165375,0c0.148483,0 0.268341,0.116302 0.268341,0.259701l0,0.673944l-0.155411,2.329253c-0.023407,0.124411 -0.135376,0.21314 -0.26358,0.21314c-0.005737,0 -0.20723,-0.019232 -0.604996,-0.057219c-0.072327,-0.007647 -0.137497,-0.041937 -0.182861,-0.097303c-0.04512,-0.054914 -0.065186,-0.125109 -0.055862,-0.194845l-0.016708,-1.952085zm-10.059196,-2.215427c-0.35717,-0.44945 -0.700714,-0.883145 -1.029465,-1.301547c-0.325874,-0.414469 -0.658928,-0.820365 -0.999382,-1.216991c-0.046791,-0.054677 -0.068756,-0.125337 -0.059906,-0.19646c0.008812,-0.070423 0.047012,-0.134836 0.105263,-0.177226l0.385101,-0.280787c0.093597,-0.068117 0.220596,-0.069508 0.314438,-0.004868c0.470078,0.320407 0.914383,0.70452 1.320007,1.142845c0.396317,0.428372 0.744156,0.837739 1.033264,1.216529c0.085716,0.111661 0.064949,0.2692 -0.046539,0.356778l-0.642693,0.504817c-0.047508,0.037532 -0.107201,0.057919 -0.168327,0.057919c-0.010506,0 -0.02124,-0.000235 -0.031502,-0.001626c-0.07164,-0.008337 -0.136574,-0.044251 -0.18026,-0.099382zm2.40506,5.445955l2.559143,0c0.292946,0 0.530403,0.229788 0.530403,0.513245c0,0.283466 -0.237457,0.513256 -0.530403,0.513256l-2.559143,0c-0.292953,0 -0.530426,-0.22979 -0.530426,-0.513256c0,-0.283457 0.237473,-0.513245 0.530426,-0.513245zm0,-1.906372l2.408295,0c0.292946,0 0.530418,0.22979 0.530418,0.513256c0,0.283455 -0.237473,0.513245 -0.530418,0.513245l-2.408295,0c-0.292953,0 -0.530426,-0.22979 -0.530426,-0.513245c0,-0.283466 0.237473,-0.513256 0.530426,-0.513256zm-0.627205,6.155247l0.14946,0.280787c0.05896,0.110971 0.027924,0.247198 -0.073303,0.323879c-0.311325,0.235844 -0.612617,0.470997 -0.90316,0.705679c-0.287453,0.23283 -0.540291,0.450605 -0.75753,0.652397c-0.219887,0.204796 -0.404442,0.378788 -0.554138,0.521725c-0.153503,0.146423 -0.252823,0.239559 -0.295792,0.277782c-0.049423,0.04425 -0.11412,0.068113 -0.180504,0.068113c-0.005486,0 -0.010506,0 -0.015991,-0.000235c-0.072578,-0.004168 -0.139648,-0.036833 -0.18718,-0.090118l-0.514496,-0.580109c-0.091431,-0.103096 -0.084984,-0.257856 0.01506,-0.353773c0.143959,-0.139467 0.204826,-0.238852 0.22966,-0.298166c0.024597,-0.058847 0.054436,-0.173285 0.054436,-0.378319l0,-7.486327l-1.729935,0c-0.148262,0 -0.268105,-0.116302 -0.268105,-0.259709l0,-0.692705c0,-0.143172 0.119843,-0.259709 0.268105,-0.259709l2.768951,0c0.148254,0 0.267624,0.116537 0.267624,0.259709l0,8.068525l1.341011,-0.857203c0.063278,-0.040537 0.142059,-0.053049 0.215126,-0.034281c0.073769,0.018764 0.135857,0.06649 0.1707,0.132057zm5.559875,-0.4289c0.734848,0.390141 1.410484,0.792322 2.011169,1.195438c0.650818,0.437164 1.512192,0.931093 2.226044,1.467422c0.116745,0.087805 0.138245,0.250902 0.047989,0.364426l-0.535736,0.673477c-0.044418,0.056068 -0.110062,0.091511 -0.182175,0.099384c-0.066589,0.00811 -0.144653,-0.012968 -0.200287,-0.058146c-0.740356,-0.597027 -1.591949,-1.14517 -2.226295,-1.592995c-1.372772,-0.967707 -2.068001,-0.471916 -2.794258,0.022242c-0.18885,0.128811 -0.376259,0.272448 -0.583969,0.401491c-0.852554,0.528446 -2.083984,0.914885 -3.627472,1.368265c-0.02578,0.007645 -0.052048,0.011124 -0.077599,0.011124c-0.102409,0 -0.198868,-0.057455 -0.243507,-0.152208l-0.149933,-0.317627c-0.029839,-0.063942 -0.031982,-0.136456 -0.00573,-0.201792c0.025787,-0.064865 0.078064,-0.117693 0.143959,-0.145252c0.861397,-0.357714 1.618675,-0.588692 2.220795,-0.906784c0.596382,-0.315065 1.09584,-0.641266 1.483566,-0.969086c0.383881,-0.323189 0.690437,-0.665136 0.911034,-1.014738c0.164986,-0.261324 0.298431,-0.54907 0.400597,-0.858582l-4.894226,0c-0.147789,0 -0.267639,-0.116301 -0.267639,-0.260172l0,-0.654711c0,-0.143171 0.11985,-0.259706 0.267639,-0.259706l5.170715,0c0.077118,-0.48003 0.132263,-1.040686 0.162102,-1.670139c0.035332,-0.741825 0.05349,-1.722964 0.05349,-2.916318c0,-0.143408 0.119598,-0.259937 0.267601,-0.259937l0.791946,0c0.148239,0 0.268105,0.116529 0.268105,0.259937c0,0.601431 -0.007416,1.13706 -0.021027,1.607587c-0.014793,0.470066 -0.032944,0.899826 -0.054413,1.28788c-0.021492,0.392458 -0.050613,0.746683 -0.08667,1.062458c-0.024605,0.212679 -0.050385,0.42211 -0.078079,0.628532l3.571136,0c0.147522,0 0.267395,0.116535 0.267395,0.259706l0,0.654711c0,0.143871 -0.119873,0.260172 -0.267395,0.260172l-3.784332,0c-0.046555,0.207115 -0.108147,0.412382 -0.18454,0.613939z"/>
     <path id="Combined-Shape" d="m144.324142,16.223738c0,0 -2.774033,-0.003469 -2.910904,0c-0.188324,0.00486 -0.540207,-0.129387 -0.57402,-0.546946l0,-2.655101c0,-0.295338 0.213089,-0.570087 0.578766,-0.570087l2.963303,0l-0.057144,3.772134zm3.034744,0c0.07309,0 0.142365,0.028471 0.193329,0.079166c0.050461,0.050459 0.077362,0.118273 0.075455,0.188639c-0.028091,0.859884 -0.064774,1.652174 -0.10762,2.375025c-0.04332,0.723324 -0.085938,1.364943 -0.129028,1.926001c-0.030716,0.421955 -0.112839,0.799011 -0.243774,1.120279c-0.144043,0.35367 -0.403793,0.636057 -0.771606,0.83905c-0.355682,0.196974 -0.824921,0.302521 -1.433685,0.322884c-0.580185,0.01968 -1.276535,-0.120586 -1.496048,-0.257385c-0.100693,-0.062263 -0.205688,-0.143272 -0.212372,-0.234472c-0.006668,-0.091425 -0.020691,-0.279598 -0.020691,-0.279598c-0.005249,-0.073845 0.021881,-0.145826 0.074509,-0.198362c0.053329,-0.053476 0.121185,-0.083099 0.202591,-0.079632c0.754944,0.024303 0.604477,0.009264 1.054901,-0.044899c0.429016,-0.051622 0.754227,-0.135637 0.966583,-0.248821c0.189041,-0.101843 0.31163,-0.22452 0.374725,-0.374502c0.075714,-0.179157 0.126892,-0.402977 0.153564,-0.66523c0.042603,-0.46385 0.078323,-1.021667 0.106171,-1.655409c0.024292,-0.538383 0.048111,-1.048294 0.071915,-1.529736l-5.378586,0l0,7.389189c0,0.143282 -0.119736,0.25901 -0.268524,0.25901l-0.837784,0c-0.148315,0 -0.268326,-0.115728 -0.268326,-0.25901l0,-7.389189l-5.102844,0c-0.14856,0 -0.268814,-0.11573 -0.268814,-0.259003l0,-0.764984c0,-0.142818 0.120255,-0.25901 0.268814,-0.25901l4.517914,0c0.266403,0 0.58493,-0.202759 0.58493,-0.549026l0,-2.668987c0,-0.288863 -0.234955,-0.554121 -0.591599,-0.554121l-3.544434,0c-0.148575,0 -0.268311,-0.115964 -0.268311,-0.259003l0,-0.708975c0,-0.1435 0.119736,-0.259236 0.268311,-0.259236l4.136032,0l0,-3.09858c0,-0.143273 0.12001,-0.259002 0.268326,-0.259002l0.837784,0c0.148788,0 0.268524,0.115728 0.268524,0.259002l0,3.09858l4.672943,0c0.07402,0 0.144257,0.029169 0.195206,0.081017c0.050247,0.051849 0.077133,0.120587 0.07309,0.191879l-0.264038,4.726452l1.842468,0zm0.526611,-5.191388c0.10643,0.095132 0.115707,0.255297 0.019516,0.360844l-0.558746,0.615689c-0.048096,0.052547 -0.11618,0.084722 -0.189041,0.087955c-0.004044,0.000237 -0.00856,0.000237 -0.012604,0.000237c-0.068802,0 -0.13475,-0.025231 -0.184982,-0.071292c-0.512817,-0.470562 -1.029907,-0.928626 -1.549881,-1.374885c-0.516373,-0.441628 -1.031067,-0.866135 -1.528641,-1.261934c-0.056442,-0.044674 -0.091446,-0.10948 -0.09642,-0.179846c-0.005737,-0.070128 0.018555,-0.139341 0.06665,-0.192116l0.343048,-0.373113c0.08287,-0.090499 0.219284,-0.112723 0.327835,-0.056244c0.614243,0.317797 1.216553,0.703181 1.790802,1.14527c0.567566,0.436305 1.096802,0.873546 1.572464,1.299433z"/>
    </g>
   </g>
  </g>
 </g>
</svg>